<?xml version="1.0" encoding="UTF-8"?>
<svg width="32px" height="32px" viewBox="0 0 32 32" version="1.1" xmlns="http://www.w3.org/2000/svg" xmlns:xlink="http://www.w3.org/1999/xlink">
    <!-- Generator: Sketch 51.3 (57544) - http://www.bohemiancoding.com/sketch -->
    <title>favicon 32</title>
    <desc>Created with Sketch.</desc>
    <defs></defs>
    <g id="Page-1" stroke="none" stroke-width="1" fill="none" fill-rule="evenodd">
        <g id="favicon-32">
            <rect id="32" fill="#FF3FA8" x="0" y="0" width="32" height="32" rx="4"></rect>
            <path d="M4,27.0428869 C6.85312491,18.8160649 10.7895199,10.468436 15.8091849,2 C17.6741681,3.26975585 18.9388766,4.10806007 19.6033106,4.51491265 C18.4539466,6.1096153 17.904256,7.24895557 17.9542388,7.93293347 C19.0814823,6.46365311 21.0843787,5.13178292 23.962928,3.93732289 C25.0260025,4.88714777 26.3716932,5.92871648 28,7.062029 C28,9.14516641 27.1989297,11.6904993 25.5967891,14.6980277 L23.4552198,18.5557028 L15.8091849,21.3505263 C14.692297,20.0316148 13.5724251,18.966707 12.4495692,18.1558028 C11.3958768,19.3436184 9.97489209,23.143536 8.18661498,29.5555556 L4,27.0428869 Z M12.8888889,17.1111111 C16.1301187,16.5804681 18.3410881,15.7784607 19.5217971,14.7050889 C20.7025061,13.6317171 21.750796,11.4707615 22.6666667,8.22222222 L14.1859313,13.9789538 L12.8888889,17.1111111 Z" id="favicon" fill="#FCFFFF"></path>
        </g>
    </g>
</svg>