<?xml version="1.0" encoding="UTF-8"?>
<svg width="34px" height="40px" viewBox="0 0 34 40" version="1.1" xmlns="http://www.w3.org/2000/svg" xmlns:xlink="http://www.w3.org/1999/xlink">
    <!-- Generator: Sketch 51.3 (57544) - http://www.bohemiancoding.com/sketch -->
    <title>header-logo</title>
    <desc>Created with Sketch.</desc>
    <defs></defs>
    <g id="Page-1" stroke="none" stroke-width="1" fill="none" fill-rule="evenodd">
        <path d="M0,36.3525778 C4.04192695,24.4104168 9.61848647,12.2928909 16.7296786,0 C19.3717381,1.84319398 21.1634086,3.0600872 22.1046901,3.65067965 C20.4764243,5.96557059 19.697696,7.61945163 19.7685049,8.61232277 C21.3654332,6.47949646 24.2028698,4.5461365 28.2808146,2.8122429 C29.7868368,4.19102096 31.693232,5.70297554 34,7.34810662 C34,10.3720158 32.8651504,14.0668538 30.5954512,18.4326208 L27.5615614,24.0324718 L16.7296786,28.0894737 C15.1474207,26.1749247 13.5609355,24.6290907 11.9702231,23.4519718 C10.4774922,25.1762202 8.46443046,30.6922296 5.93103788,40 L0,36.3525778 Z M12.8850391,22.0116793 C17.600905,21.2941608 20.8177812,20.2097121 22.5356678,18.758333 C24.2535544,17.306954 25.7787762,14.384979 27.1113331,9.99240804 L14.7721863,17.7764764 L12.8850391,22.0116793 Z" id="header-logo" fill="#FA1387"></path>
    </g>
</svg>