<?xml version="1.0" encoding="UTF-8"?>
<svg width="40px" height="40px" viewBox="0 0 40 40" version="1.1" xmlns="http://www.w3.org/2000/svg" xmlns:xlink="http://www.w3.org/1999/xlink">
    <!-- Generator: Sketch 51.3 (57544) - http://www.bohemiancoding.com/sketch -->
    <title>Group 3</title>
    <desc>Created with Sketch.</desc>
    <defs></defs>
    <g id="Page-1" stroke="none" stroke-width="1" fill="none" fill-rule="evenodd">
        <g id="Group-3">
            <rect id="Rectangle-9" fill="#43CAB5" x="0" y="0" width="40" height="40"></rect>
            <polygon id="Path-2" fill="#FFF03D" points="0 40 12 40 12 29.6152814 24 29.6152814 24 0 0 0"></polygon>
            <circle id="Oval" fill="#FFF03D" cx="23" cy="14" r="14"></circle>
            <path d="M13.4343434,21.0628019 L23.4621212,21.0628019 C25.1094358,21.0628019 26.5048343,20.5032262 27.6483586,19.384058 C28.7918828,18.2648897 29.3636364,16.68278 29.3636364,14.6376812 C29.3636364,13.1078829 28.7638949,11.7351107 27.5643939,10.5193237 C26.364893,9.30353659 24.9974824,8.69565217 23.4621212,8.69565217 L8.63636364,8.69565217 L8.63636364,40 L6.90909091,40 L6.90909091,6.95652174 L23.4621212,6.95652174 C25.4772828,6.95652174 27.2525176,7.73751232 28.7878788,9.29951691 C30.32324,10.8615215 31.0909091,12.6408918 31.0909091,14.6376812 C31.0909091,17.1014616 30.3472297,19.0780924 28.8598485,20.5676329 C27.3724673,22.0571733 25.5732429,22.8019324 23.4621212,22.8019324 L13.4343434,22.8019324 L13.4343434,21.0628019 Z M13.4343434,24.5410628 L23.4621212,24.5410628 C25.1254292,24.5410628 26.6647657,24.1344646 28.0801768,23.321256 C29.4955879,22.5080475 30.639095,21.3365616 31.5107323,19.8067633 C32.3823697,18.276965 32.8181818,16.5539548 32.8181818,14.6376812 C32.8181818,12.1577976 31.8785868,9.96780338 29.9993687,8.06763285 C28.1201505,6.16746232 25.9410898,5.2173913 23.4621212,5.2173913 L5.18181818,5.2173913 L5.18181818,40 L3.45454545,40 L3.45454545,3.47826087 L23.4621212,3.47826087 C25.3973161,3.47826087 27.2205302,3.99355362 28.9318182,5.02415459 C30.6431062,6.05475556 32.0065185,7.43155338 33.022096,9.15458937 C34.0376734,10.8776254 34.5454545,12.7053043 34.5454545,14.6376812 C34.5454545,16.8277082 34.0336752,18.8204419 33.010101,20.615942 C31.9865269,22.4114421 30.6311111,23.8043429 28.9438131,24.794686 C27.2565151,25.7850291 25.4293028,26.2801932 23.4621212,26.2801932 L13.4343434,26.2801932 L13.4343434,24.5410628 Z M12.0907807,28.0193237 L23.4621212,28.0193237 C25.1734092,28.0193237 26.8127026,27.6771371 28.3800505,26.9927536 C29.9473984,26.3083702 31.3108107,25.3824535 32.4703283,24.2149758 C33.6298459,23.0474982 34.5534477,21.6304431 35.2411616,19.9637681 C35.9288755,18.2970931 36.2727273,16.5217486 36.2727273,14.6376812 C36.2727273,12.3832415 35.6889789,10.2616847 34.5214646,8.27294686 C33.3539504,6.28420906 31.7826277,4.69807355 29.8074495,3.51449275 C27.8322713,2.33091196 25.717183,1.73913043 23.4621212,1.73913043 L1.72727273,1.73913043 L1.72727273,40 L-1.77635684e-15,40 L-1.77635684e-15,2.48689958e-14 L23.4621212,2.48689958e-14 C26.0210566,2.48689958e-14 28.4200225,0.672296014 30.6590909,2.01690821 C32.8981593,3.36152041 34.6813907,5.16101932 36.0088384,7.41545894 C37.3362861,9.66989855 38,12.0772819 38,14.6376812 C38,16.9243271 37.6081689,19.029781 36.8244949,20.9541063 C36.040821,22.8784315 34.985276,24.4766442 33.6578283,25.7487923 C32.3303806,27.0209403 30.7870458,28.0072429 29.0277778,28.7077295 C27.2685097,29.4082161 25.4133094,29.7584541 23.4621212,29.7584541 L12.0907807,29.7584541 L12.0907807,28.0193237 Z M12.0909091,40 L10.3636364,40 L10.3636364,10.4347826 L23.4621212,10.4347826 C24.5976488,10.4347826 25.5772265,10.853458 26.4008838,11.6908213 C27.2245412,12.5281845 27.6363636,13.5104614 27.6363636,14.6376812 C27.6363636,17.7616903 26.2449634,19.3236715 23.4621212,19.3236715 L12.0909091,19.3236715 L12.0909091,17.5845411 L23.4621212,17.5845411 C24.2298018,17.5845411 24.8295433,17.3671519 25.2613636,16.9323671 C25.693184,16.4975824 25.9090909,15.7326947 25.9090909,14.6376812 C25.9090909,13.929143 25.6731926,13.3413872 25.2013889,12.8743961 C24.7295852,12.4074051 24.1498351,12.173913 23.4621212,12.173913 L12.0909091,12.173913 L12.0909091,40 Z" id="P" fill="#50E3C2"></path>
        </g>
    </g>
</svg>