<?xml version="1.0" encoding="UTF-8"?>
<svg width="165px" height="67px" viewBox="0 0 165 67" version="1.1" xmlns="http://www.w3.org/2000/svg" xmlns:xlink="http://www.w3.org/1999/xlink">
    <!-- Generator: Sketch 51.3 (57544) - http://www.bohemiancoding.com/sketch -->
    <title>Combined Shape</title>
    <desc>Created with Sketch.</desc>
    <defs>
        <linearGradient x1="0.25781251%" y1="49.7500002%" x2="101.257813%" y2="49.7500002%" id="linearGradient-1">
            <stop stop-color="#FF1D99" offset="0%"></stop>
            <stop stop-color="#53A0FD" offset="76.770584%"></stop>
            <stop stop-color="#5E8CE6" offset="100%"></stop>
        </linearGradient>
    </defs>
    <g id="Page-1" stroke="none" stroke-width="1" fill="none" fill-rule="evenodd">
        <path d="M0.264144897,61.3234558 C5.52617391,45.5480855 12.7860819,29.5410614 22.043869,13.3023834 C25.4834646,15.737208 27.8159714,17.3447011 29.0413895,18.1248627 C26.9216131,21.1827901 25.9078166,23.3675359 26,24.6791 C28.0789795,21.8616765 31.7729289,19.3077443 37.0818481,17.0173035 C39.0424805,18.8386434 41.5243429,20.835907 44.5274353,23.0090942 C44.5274353,27.0036214 43.0500183,31.8844331 40.0951843,37.6515293 C42.8488668,36.804294 46.5027974,35.3320262 51.0569763,33.234726 C53.5904948,22.423111 61.0237923,16.1670265 73.3568687,14.4664726 L77.9173317,21.4394531 L81.0778122,16.7011242 L87.5733185,21.4394531 C85.2397368,24.9916586 83.5479873,27.6936652 82.4980698,29.5454731 C81.2699992,31.7115011 79.5447668,35.0362481 77.3223724,39.5197144 C84.4432119,37.1229045 88.8719482,35.0279083 90.6085815,33.234726 C90.6085815,30.8850149 94.322525,24.6289304 101.750412,14.4664726 L107.894592,19.2720337 C105.19869,24.660258 103.850739,26.7792409 103.850739,25.6289825 C110.200867,20.3553111 114.875158,17.4847514 117.873611,17.0173035 L124.354874,23.4196968 C124.020665,28.4700279 121.860245,33.8367004 117.873611,39.5197144 C121.6763,38.2063446 123.048401,37.8883362 131.209473,33.234726 C135.246063,21.0171051 142.782547,10.0481364 153.818924,0.327819824 C157.378586,2.16427612 161.016276,4.34729004 164.731995,6.87686157 C164.731995,20.5285339 156.305873,29.9029134 139.453629,35 C138.334478,38.1971029 137.604721,40.3370361 137.264359,41.4197998 C141.464391,42.3132222 150.050257,39.5811005 163.021957,33.2234344 L164.731995,39.5197144 C160.806444,41.9954278 156.981252,43.9275338 153.25642,45.3160324 C149.531588,46.704531 143.620309,48.4018704 135.522583,50.4080505 C131.60553,46.3398336 129.067001,43.7904612 127.906998,42.7599335 C123.329096,45.7412872 118.407555,48.031517 113.142372,49.6306229 L105.136055,43.9065742 C108.210173,39.4835745 110.347474,36.1296863 111.547958,33.8449097 C112.748443,31.560133 113.580526,29.5413024 114.044209,27.7884178 L98.5418892,35.5437088 L93.7139435,50.4080505 L86,44.2819977 L74.0949554,50.4080505 C72.4264476,47.8831278 70.8636983,45.8411102 69.4067078,44.2819977 C65.5511983,47.2122854 61.6694132,49.254303 57.7613525,50.4080505 C53.064799,45.9272156 50.3114675,42.931132 49.501358,41.4197998 C49.501358,42.6061198 40.3488617,45.6022034 22.043869,50.4080505 C19.9839884,47.8789673 17.9186045,45.8369497 15.8477173,44.2819977 C13.9043884,46.5596975 11.2836609,53.8462423 7.98553467,66.1416321 L0.264144897,61.3234558 Z M17.038681,42.3793983 C23.1780851,41.4315699 27.3660124,39.9990335 29.6024628,38.081789 C31.8389132,36.1645446 33.8245407,32.3046705 35.5593452,26.5021667 L19.4954853,36.7847748 L17.038681,42.3793983 Z M71.1963921,31.3833337 L73.7992706,22.3409052 C68.9415238,23.6899946 65.4687315,25.6219299 63.3808937,28.1367111 C61.2930559,30.6514923 59.7610061,34.7478427 58.7847443,40.4257622 C61.9239134,39.2406288 64.2234002,38.1162963 65.6832047,37.0527649 C67.1430091,35.9892334 68.9807383,34.099423 71.1963921,31.3833337 Z M142.935436,27.4432487 C147.483344,24.9655223 150.536447,22.5890683 152.094746,20.3138866 C153.653045,18.038705 155.143936,13.7807361 156.567421,7.53997993 C153.096104,11.4297881 150.599252,14.4860682 149.076862,16.7088203 C147.554473,18.9315724 145.507331,22.5097152 142.935436,27.4432487 Z" id="Combined-Shape" fill="url(#linearGradient-1)"></path>
    </g>
</svg>